<?xml version="1.0" encoding="UTF-8"?>
<!DOCTYPE svg PUBLIC "-//W3C//DTD SVG 1.1//EN" "http://www.w3.org/Graphics/SVG/1.1/DTD/svg11.dtd">
<svg xmlns="http://www.w3.org/2000/svg" version="1.1" width="200px" height="200px" style="shape-rendering:geometricPrecision; text-rendering:geometricPrecision; image-rendering:optimizeQuality; fill-rule:evenodd; clip-rule:evenodd" xmlns:xlink="http://www.w3.org/1999/xlink">
<g><path style="opacity:1" fill="#fefefe" d="M -0.5,-0.5 C 66.1667,-0.5 132.833,-0.5 199.5,-0.5C 199.5,66.1667 199.5,132.833 199.5,199.5C 132.833,199.5 66.1667,199.5 -0.5,199.5C -0.5,132.833 -0.5,66.1667 -0.5,-0.5 Z"/></g>
<g><path style="opacity:1" fill="#2f3444" d="M 84.5,18.5 C 94.1724,18.3335 103.839,18.5002 113.5,19C 114.308,19.3076 114.975,19.8076 115.5,20.5C 117.518,25.1393 116.518,28.8059 112.5,31.5C 111.336,37.4724 111.17,43.4724 112,49.5C 130.617,61.636 134.284,77.3027 123,96.5C 110.02,109.293 95.8529,110.793 80.5,101C 67.9358,88.6227 66.1024,74.7894 75,59.5C 78.416,55.4131 82.416,52.0797 87,49.5C 87.4995,43.5092 87.6662,37.5092 87.5,31.5C 85.6096,31.7035 84.1096,31.0368 83,29.5C 82.1122,25.5979 82.6122,21.9312 84.5,18.5 Z"/></g>
<g><path style="opacity:1" fill="#f9f8f8" d="M 86.5,21.5 C 95.1731,21.3336 103.84,21.5002 112.5,22C 113.423,24.0408 113.756,26.2075 113.5,28.5C 111.278,28.178 109.444,28.8446 108,30.5C 107.116,37.5817 107.449,44.5817 109,51.5C 125.093,59.6974 130.093,72.3641 124,89.5C 116.14,102.013 104.973,106.513 90.5,103C 73.424,94.4464 68.5907,81.2797 76,63.5C 79.2741,58.2258 83.7741,54.3925 89.5,52C 90.1905,50.9326 90.6905,49.7659 91,48.5C 91.6667,42.5 91.6667,36.5 91,30.5C 89.5557,28.8446 87.7224,28.178 85.5,28.5C 85.298,26.0504 85.6314,23.717 86.5,21.5 Z"/></g>
<g><path style="opacity:1" fill="#dd324d" d="M 103.5,66.5 C 107.793,65.5356 110.96,66.8689 113,70.5C 113.207,74.0894 113.707,77.5894 114.5,81C 115.784,81.6838 116.951,81.5171 118,80.5C 118.271,76.0462 118.437,71.7129 118.5,67.5C 119.478,67.9767 120.311,68.6433 121,69.5C 124.39,87.3911 117.057,97.3911 99,99.5C 81.7326,96.3399 74.8993,86.0066 78.5,68.5C 84.4781,69.4085 90.4781,69.5752 96.5,69C 99.1042,68.6097 101.438,67.7763 103.5,66.5 Z"/></g>
<g><path style="opacity:1" fill="#202536" d="M 100.5,113.5 C 101.5,113.5 102.5,113.5 103.5,113.5C 103.334,121.84 103.5,130.173 104,138.5C 105.706,139.308 106.539,140.641 106.5,142.5C 104.278,142.822 102.444,142.155 101,140.5C 100.5,131.506 100.334,122.506 100.5,113.5 Z"/></g>
<g><path style="opacity:1" fill="#282d3d" d="M 55.5,116.5 C 59.8461,116.334 64.1794,116.501 68.5,117C 73.2238,119.435 74.7238,123.269 73,128.5C 69.2654,132.096 64.7654,133.429 59.5,132.5C 59.5,135.833 59.5,139.167 59.5,142.5C 58.1667,142.5 56.8333,142.5 55.5,142.5C 55.5,133.833 55.5,125.167 55.5,116.5 Z"/></g>
<g><path style="opacity:1" fill="#fcfcfc" d="M 59.5,119.5 C 67.4656,117.635 70.4656,120.468 68.5,128C 65.6492,129.289 62.6492,129.789 59.5,129.5C 59.5,126.167 59.5,122.833 59.5,119.5 Z"/></g>
<g><path style="opacity:1" fill="#282d3e" d="M 112.5,122.5 C 115.448,122.223 118.281,122.556 121,123.5C 121.167,123.833 121.333,124.167 121.5,124.5C 109.851,125.739 109.518,128.572 120.5,133C 123.418,136.472 123.085,139.472 119.5,142C 116.183,142.498 112.85,142.665 109.5,142.5C 109.5,141.5 109.5,140.5 109.5,139.5C 112.518,139.665 115.518,139.498 118.5,139C 118.957,138.586 119.291,138.086 119.5,137.5C 116.638,134.812 113.472,132.479 110,130.5C 109.023,127.183 109.856,124.516 112.5,122.5 Z"/></g>
<g><path style="opacity:1" fill="#2a2f3f" d="M 131.5,122.5 C 140.006,121.341 144.006,125.008 143.5,133.5C 139.167,133.5 134.833,133.5 130.5,133.5C 130.178,135.722 130.845,137.556 132.5,139C 135.482,139.498 138.482,139.665 141.5,139.5C 141.5,140.5 141.5,141.5 141.5,142.5C 129.866,144.698 125.032,140.031 127,128.5C 127.979,126.032 129.479,124.032 131.5,122.5 Z"/></g>
<g><path style="opacity:1" fill="#868991" d="M 81.5,123.5 C 80.5,123.5 79.5,123.5 78.5,123.5C 78.5,127.167 78.5,130.833 78.5,134.5C 77.5166,130.702 77.1832,126.702 77.5,122.5C 79.099,122.232 80.4324,122.566 81.5,123.5 Z"/></g>
<g><path style="opacity:1" fill="#202637" d="M 81.5,123.5 C 81.3342,128.179 81.5008,132.845 82,137.5C 84.4815,139.314 87.3148,139.98 90.5,139.5C 90.5,134.167 90.5,128.833 90.5,123.5C 91.5,123.5 92.5,123.5 93.5,123.5C 93.5,129.5 93.5,135.5 93.5,141.5C 90.0242,142.643 86.3575,142.81 82.5,142C 79.4792,140.461 78.1459,137.961 78.5,134.5C 78.5,130.833 78.5,127.167 78.5,123.5C 79.5,123.5 80.5,123.5 81.5,123.5 Z"/></g>
<g><path style="opacity:1" fill="#888b93" d="M 90.5,123.5 C 91.5676,122.566 92.901,122.232 94.5,122.5C 94.8235,129.022 94.4902,135.355 93.5,141.5C 93.5,135.5 93.5,129.5 93.5,123.5C 92.5,123.5 91.5,123.5 90.5,123.5 Z"/></g>
<g><path style="opacity:1" fill="#f8f8f9" d="M 132.5,125.5 C 136.851,124.533 139.185,126.2 139.5,130.5C 136.5,130.5 133.5,130.5 130.5,130.5C 130.392,128.486 131.058,126.82 132.5,125.5 Z"/></g>
<g><path style="opacity:1" fill="#272c3c" d="M 129.5,152.5 C 130.5,152.5 131.5,152.5 132.5,152.5C 132.5,153.833 132.5,155.167 132.5,156.5C 131.167,156.5 129.833,156.5 128.5,156.5C 128.433,155.041 128.766,153.708 129.5,152.5 Z"/></g>
<g><path style="opacity:1" fill="#292f3f" d="M 51.5,161.5 C 51.44,160.957 51.1067,160.624 50.5,160.5C 49.5258,162.743 49.1924,165.076 49.5,167.5C 49.5,171.833 49.5,176.167 49.5,180.5C 48.1667,180.5 46.8333,180.5 45.5,180.5C 46.0345,171.822 46.7011,163.156 47.5,154.5C 49.9806,154.323 51.8139,155.323 53,157.5C 54.8979,162.296 57.0645,166.962 59.5,171.5C 62.1511,166.198 64.8178,160.864 67.5,155.5C 68.6888,154.571 70.0222,154.238 71.5,154.5C 72.9239,163.101 73.5906,171.767 73.5,180.5C 72.5,180.5 71.5,180.5 70.5,180.5C 69.9531,173.844 69.4531,167.177 69,160.5C 66.0268,165.246 63.5268,170.246 61.5,175.5C 60.3112,176.429 58.9778,176.762 57.5,176.5C 55.7806,171.394 53.7806,166.394 51.5,161.5 Z"/></g>
<g><path style="opacity:1" fill="#5b5f6b" d="M 102.5,160.5 C 101.837,158.958 101.17,157.291 100.5,155.5C 99.503,162.468 99.1697,169.468 99.5,176.5C 98.5084,169.352 98.175,162.019 98.5,154.5C 99.8333,154.5 101.167,154.5 102.5,154.5C 102.5,156.5 102.5,158.5 102.5,160.5 Z"/></g>
<g><path style="opacity:1" fill="#242a3a" d="M 102.5,160.5 C 104.833,160.5 107.167,160.5 109.5,160.5C 109.5,161.5 109.5,162.5 109.5,163.5C 107.167,163.5 104.833,163.5 102.5,163.5C 102.334,167.846 102.501,172.179 103,176.5C 105.473,177.12 107.973,177.786 110.5,178.5C 107.792,180.436 104.792,180.936 101.5,180C 100.177,179.184 99.5106,178.017 99.5,176.5C 99.1697,169.468 99.503,162.468 100.5,155.5C 101.17,157.291 101.837,158.958 102.5,160.5 Z"/></g>
<g><path style="opacity:1" fill="#2b3040" d="M 92.5,164.5 C 93.0366,170.135 92.3699,175.468 90.5,180.5C 87.1501,180.665 83.8168,180.498 80.5,180C 77.0645,176.94 76.7312,173.607 79.5,170C 82.6883,168.684 86.0217,168.184 89.5,168.5C 89.7135,166.856 89.3802,165.356 88.5,164C 85.854,163.503 83.1873,163.336 80.5,163.5C 80.5,162.5 80.5,161.5 80.5,160.5C 83.5184,160.335 86.5184,160.502 89.5,161C 91.4257,161.422 92.4257,162.589 92.5,164.5 Z"/></g>
<g><path style="opacity:1" fill="#24293a" d="M 115.5,160.5 C 118.833,160.5 122.167,160.5 125.5,160.5C 125.5,161.5 125.5,162.5 125.5,163.5C 122.833,163.5 120.167,163.5 117.5,163.5C 117.5,169.167 117.5,174.833 117.5,180.5C 116.5,180.5 115.5,180.5 114.5,180.5C 114.207,173.745 114.54,167.078 115.5,160.5 Z"/></g>
<g><path style="opacity:1" fill="#888b93" d="M 129.5,160.5 C 129.5,166.833 129.5,173.167 129.5,179.5C 130.5,179.5 131.5,179.5 132.5,179.5C 131.432,180.434 130.099,180.768 128.5,180.5C 128.176,173.646 128.509,166.979 129.5,160.5 Z"/></g>
<g><path style="opacity:1" fill="#1d2334" d="M 129.5,160.5 C 130.5,160.5 131.5,160.5 132.5,160.5C 132.5,166.833 132.5,173.167 132.5,179.5C 131.5,179.5 130.5,179.5 129.5,179.5C 129.5,173.167 129.5,166.833 129.5,160.5 Z"/></g>
<g><path style="opacity:1" fill="#2a2f3f" d="M 136.5,161.5 C 137.601,160.402 138.934,160.235 140.5,161C 142,163.167 143.5,165.333 145,167.5C 146.5,165.333 148,163.167 149.5,161C 150.833,160.333 152.167,160.333 153.5,161C 151.306,163.695 149.306,166.528 147.5,169.5C 149.5,172.833 151.5,176.167 153.5,179.5C 152.635,180.583 151.635,180.749 150.5,180C 148.789,177.411 146.955,174.911 145,172.5C 143.045,174.911 141.211,177.411 139.5,180C 138.365,180.749 137.365,180.583 136.5,179.5C 138.713,176.457 140.713,173.29 142.5,170C 141.04,166.719 139.04,163.886 136.5,161.5 Z"/></g>
<g><path style="opacity:1" fill="#6c707b" d="M 51.5,161.5 C 50.8333,163.5 50.1667,165.5 49.5,167.5C 49.1924,165.076 49.5258,162.743 50.5,160.5C 51.1067,160.624 51.44,160.957 51.5,161.5 Z"/></g>
<g><path style="opacity:1" fill="#616570" d="M 92.5,164.5 C 93.4881,169.64 93.8214,174.974 93.5,180.5C 92.5,180.5 91.5,180.5 90.5,180.5C 92.3699,175.468 93.0366,170.135 92.5,164.5 Z"/></g>
<g><path style="opacity:1" fill="#f8f8f9" d="M 82.5,171.5 C 84.8333,171.5 87.1667,171.5 89.5,171.5C 89.5,173.5 89.5,175.5 89.5,177.5C 87.1432,177.663 84.8098,177.497 82.5,177C 81.2475,175.172 81.2475,173.339 82.5,171.5 Z"/></g>
</svg>
